<svg xmlns="http://www.w3.org/2000/svg" width="30" height="20.998" viewBox="0 0 30 20.998">
  <path id="Icon_awesome-users-cog" data-name="Icon awesome-users-cog" d="M28.62,16.752a5.5,5.5,0,0,0,0-2l1.21-.7a.339.339,0,0,0,.155-.4,7.035,7.035,0,0,0-1.556-2.691.342.342,0,0,0-.422-.066l-1.21.7a5.5,5.5,0,0,0-1.73-1V9.2a.341.341,0,0,0-.267-.333,7.073,7.073,0,0,0-3.1,0,.341.341,0,0,0-.267.333v1.4a5.5,5.5,0,0,0-1.73,1l-1.21-.7a.343.343,0,0,0-.422.066,7.035,7.035,0,0,0-1.556,2.691.345.345,0,0,0,.155.4l1.21.7a5.5,5.5,0,0,0,0,2l-1.21.7a.339.339,0,0,0-.155.4,7.07,7.07,0,0,0,1.556,2.691.342.342,0,0,0,.422.066l1.21-.7a5.5,5.5,0,0,0,1.73,1v1.4a.341.341,0,0,0,.267.333,7.073,7.073,0,0,0,3.1,0,.341.341,0,0,0,.267-.333v-1.4a5.5,5.5,0,0,0,1.73-1l1.21.7a.343.343,0,0,0,.422-.066,7.035,7.035,0,0,0,1.556-2.691.345.345,0,0,0-.155-.4l-1.21-.7Zm-5.368,1.275a2.274,2.274,0,1,1,2.274-2.274A2.276,2.276,0,0,1,23.252,18.027ZM4.5,11.253a3,3,0,1,0-3-3A3,3,0,0,0,4.5,11.253Zm10.5,1.5c.089,0,.173-.023.263-.028a8.642,8.642,0,0,1,1.7-2.775,1.848,1.848,0,0,1,1.355-.591,1.8,1.8,0,0,1,.919.248l.37.216c.038-.023.075-.042.113-.066a5.189,5.189,0,0,0,.525-2.25A5.248,5.248,0,1,0,15,12.753Zm4.932,9.118c-.108-.056-.216-.122-.319-.183a2.316,2.316,0,0,1-1.289.459,1.863,1.863,0,0,1-1.355-.591,8.548,8.548,0,0,1-1.885-3.263,2,2,0,0,1,1.21-2.358q-.007-.183,0-.366l-.37-.216a1.91,1.91,0,0,1-.459-.38c-.155.009-.3.028-.459.028a7.4,7.4,0,0,1-3.211-.75h-.389A5.4,5.4,0,0,0,6,19.654V21a2.251,2.251,0,0,0,2.25,2.25H20.224a1.805,1.805,0,0,1-.291-.952v-.431ZM8.115,13.625A2.992,2.992,0,0,0,6,12.753H3a3,3,0,0,0-3,3v1.5a1.5,1.5,0,0,0,1.5,1.5H4.59A6.875,6.875,0,0,1,8.115,13.625Z" transform="translate(0 -2.257)" fill="#cbeefc"/>
</svg>
