<svg id="Group_2282" data-name="Group 2282" xmlns="http://www.w3.org/2000/svg" width="21.125" height="24.897" viewBox="0 0 21.125 24.897">
  <g id="Group_703" data-name="Group 703" transform="translate(0 0)">
    <path id="Path_581" data-name="Path 581" d="M468.38,1193.171a1.364,1.364,0,0,0-1.362,1.362v20.133a1.365,1.365,0,0,0,1.362,1.363h12.158v-2.676a2.142,2.142,0,0,1,2.14-2.139h2.967v-16.681a1.364,1.364,0,0,0-1.362-1.362Zm13.715,12.472H470.568v-.938h11.526Zm0-3.281H470.568v-.938h11.526Zm0-3.281H470.568v-.938h11.526Z" transform="translate(-467.018 -1193.171)" fill="#cbeefc"/>
    <path id="Path_582" data-name="Path 582" d="M504.921,1244.425v2.163l3.739-3.526h-2.377A1.364,1.364,0,0,0,504.921,1244.425Z" transform="translate(-490.623 -1224.242)" fill="#cbeefc"/>
  </g>
  <g id="Ellipse_3" data-name="Ellipse 3" transform="translate(5.86 9.632)" fill="#cbeefc" stroke="#038dc6" stroke-width="0.5">
    <ellipse cx="7.633" cy="7.633" rx="7.633" ry="7.633" stroke="none"/>
    <ellipse cx="7.633" cy="7.633" rx="7.383" ry="7.383" fill="none"/>
  </g>
  <g id="Group_704" data-name="Group 704" transform="translate(10.044 12.449)">
    <path id="Path_583" data-name="Path 583" d="M551.967,1212.97c-1.426.139-2.771.785-2.831,2.342-.067,1.752,1.392,2.265,2.831,2.615v1.944a1.346,1.346,0,0,1-.733-1.139l-2.417.274c.186,1.7,1.65,2.323,3.15,2.422v.649h.5v-9.725h-.5Zm0,2.839c-.05-.02-.1-.042-.139-.063-.628-.324-.541-.979.139-1.215Z" transform="translate(-548.818 -1212.353)" fill="#0488c1"/>
    <path id="Path_584" data-name="Path 584" d="M576.389,1217.273a6,6,0,0,0-2.535-1.133v-1.572a1.116,1.116,0,0,1,.6.722l2.349-.388c-.266-1.083-1.411-1.8-2.945-1.938v-.61h-.407v9.725h.408v-.67a5.165,5.165,0,0,0,1.964-.531A2.266,2.266,0,0,0,576.389,1217.273Zm-2.534,2.661v-1.689c.577.2.776.391.87.716C574.835,1219.351,574.555,1219.786,573.855,1219.934Z" transform="translate(-569.547 -1212.353)" fill="#0488c1"/>
  </g>
</svg>
