<svg xmlns="http://www.w3.org/2000/svg" width="28" height="28.002" viewBox="0 0 28 28.002">
  <g id="Group_2275" data-name="Group 2275" transform="translate(-445.232 -682.708)">
    <path id="Path_1006" data-name="Path 1006" d="M459.67,705.481A8.333,8.333,0,1,0,468,697.148,8.343,8.343,0,0,0,459.67,705.481Zm14.139-.508a5.828,5.828,0,1,1-6.312-5.3A5.827,5.827,0,0,1,473.809,704.974Z" transform="translate(-8.771 -8.772)" fill="#cbeefc"/>
    <path id="Path_1007" data-name="Path 1007" d="M470.658,701.316l1.377-.053a.85.85,0,0,0,.737-.587l.453-2.181a.851.851,0,0,0-.44-.833l-1.241-.6a1.041,1.041,0,0,1-.533-.838s0-.161-.035-.537l-.011-.13c-.018-.141.189-.4.461-.569l1.169-.738a.851.851,0,0,0,.345-.876l-.69-2.116a.85.85,0,0,0-.8-.5l-1.382.1a.986.986,0,0,1-.845-.389c-.144-.238-.442-1.066-.293-1.35l.642-1.22a.847.847,0,0,0-.139-.93l-1.659-1.484a.849.849,0,0,0-.941-.036l-1.143.775a.986.986,0,0,1-.925.085c-.243-.133-.917-.7-.93-1.025l-.054-1.378a.848.848,0,0,0-.586-.737l-2.181-.454a.848.848,0,0,0-.832.44l-.6,1.242a1.039,1.039,0,0,1-.838.533s-.161,0-.537.035l-.131.013c-.141.017-.4-.19-.567-.462l-.738-1.17A.849.849,0,0,0,455.9,683l-2.117.691a.848.848,0,0,0-.5.8l.1,1.382a.986.986,0,0,1-.39.845c-.237.144-1.064.443-1.348.294l-1.222-.643a.848.848,0,0,0-.93.139l-1.484,1.66a.849.849,0,0,0-.035.94l.776,1.144a.984.984,0,0,1,.085.924c-.134.243-.705.916-1.026.93l-1.379.053a.85.85,0,0,0-.736.586l-.453,2.181a.85.85,0,0,0,.44.832l1.242.6a1.037,1.037,0,0,1,.532.838s0,.161.035.537l.012.131c.017.141-.19.4-.462.568l-1.17.738a.849.849,0,0,0-.345.876l.691,2.115a.85.85,0,0,0,.8.5l1.381-.1a.985.985,0,0,1,.845.389c.144.237.443,1.066.294,1.35l-.642,1.22a.847.847,0,0,0,.139.931l1.66,1.485a.85.85,0,0,0,.94.035l1.144-.776a.98.98,0,0,1,.924-.084c.242.133.916.7.929,1.025l.054,1.379a.851.851,0,0,0,.586.737l2.18.453a.851.851,0,0,0,.832-.44l.6-1.242a1.043,1.043,0,0,1,.838-.534s.16,0,.537-.033l.13-.011c.141-.019.4.188.568.46l.738,1.17a.848.848,0,0,0,.876.346l2.116-.692a.849.849,0,0,0,.5-.8l-.1-1.382a.989.989,0,0,1,.39-.845c.237-.145,1.065-.442,1.349-.294l1.222.642a.847.847,0,0,0,.93-.139l1.485-1.66a.849.849,0,0,0,.035-.94l-.776-1.143a.982.982,0,0,1-.085-.924C469.766,702,470.338,701.328,470.658,701.316ZM459.232,706.2a9.5,9.5,0,1,1,9.5-9.5A9.506,9.506,0,0,1,459.232,706.2Z" fill="#cbeefc"/>
  </g>
</svg>
