<svg xmlns="http://www.w3.org/2000/svg" width="23.987" height="25.328" viewBox="0 0 23.987 25.328">
  <g id="Group_2284" data-name="Group 2284" transform="translate(-446.441 -833.59)">
    <path id="Path_1040" data-name="Path 1040" d="M477.07,838.314c-1.435.819-2.458,1.318-3.273,1.188a5.843,5.843,0,0,0,3.22-3.075c.061-.144-.376-.346-.519-.406a.282.282,0,0,0-.37.149,5.227,5.227,0,0,1-2.179,2.628,11.92,11.92,0,0,0,1.323-5.206H462.386a10.659,10.659,0,0,0,2.121,6.349h8.646l.005-.007a4.514,4.514,0,0,0,1.293.185,6.118,6.118,0,0,0,3.047-.889c.135-.077.035-.675-.043-.81A.282.282,0,0,0,477.07,838.314Z" transform="translate(-10.395)" fill="#cbeefc"/>
    <path id="Path_1041" data-name="Path 1041" d="M462.858,853.656h-8.846a12,12,0,0,0-7.57,11.147c0,6.624,5.37,7.2,11.994,7.2s11.994-.573,11.994-7.2A12,12,0,0,0,462.858,853.656Zm-1.14,10.872a2.732,2.732,0,0,1-2.468,2.429l.008,1.534h-1.481v-1.412a6.819,6.819,0,0,1-2.639-.68l.559-1.731a5.955,5.955,0,0,0,1.442.52c.774.159,2.118.117,2.282-.612.159-.706-.3-.983-1.257-1.257s-2.627-1.055-2.779-2.346c-.165-1.4.471-2.491,2.369-2.893V856.6h1.481v1.3a6.457,6.457,0,0,1,2.088.482l-.357,1.591a7.953,7.953,0,0,0-2.414-.41c-.98.069-1.046,1.063-.349,1.508a21.257,21.257,0,0,0,2.422,1.112A2.283,2.283,0,0,1,461.717,864.528Z" transform="translate(0 -13.082)" fill="#cbeefc"/>
  </g>
</svg>
