<svg xmlns="http://www.w3.org/2000/svg" width="32" height="23.88" viewBox="0 0 32 23.88">
  <g id="Group_2288" data-name="Group 2288" transform="translate(-18.578 -135.316)">
    <path id="Subtraction_2" data-name="Subtraction 2" d="M32,20.917H0V0H32V20.917ZM1.322,1.549V19.342H30.666V1.549Z" transform="translate(18.578 135.316)" fill="#cbeefc"/>
    <path id="Path_1254" data-name="Path 1254" d="M-1663.628,7247.46h1.274v5.952h-1.274Z" transform="translate(1687.334 -7100.204)" fill="#cbeefc"/>
    <path id="Path_1255" data-name="Path 1255" d="M-1663.628,7247.46h1.274v9.952h-1.274Z" transform="translate(1688.504 -7104.05)" fill="#cbeefc"/>
    <path id="Path_1256" data-name="Path 1256" d="M-1663.628,7247.46h1.274v8.027h-1.274Z" transform="translate(1690.358 -7102.208)" fill="#cbeefc"/>
    <path id="Path_1257" data-name="Path 1257" d="M-1663.628,7247.46h1.274v15.353h-1.274Z" transform="translate(1692.212 -7108.369)" fill="#cbeefc"/>
    <path id="Path_1258" data-name="Path 1258" d="M-1663.628,7247.46h1.274v9.953h-1.274Z" transform="translate(1694.065 -7104.051)" fill="#cbeefc"/>
    <path id="Path_1259" data-name="Path 1259" d="M-1663.628,7247.461h1.274v15.353h-1.274Z" transform="translate(1695.919 -7108.369)" fill="#cbeefc"/>
    <path id="Path_1260" data-name="Path 1260" d="M-1663.174,7247.7h5.933v1.285h-5.933Z" transform="translate(1703.392 -7098.981)" fill="#cbeefc"/>
    <path id="Path_1261" data-name="Path 1261" d="M-1663.174,7247.7h5.933v1.285h-5.933Z" transform="translate(1703.392 -7097.129)" fill="#cbeefc"/>
    <path id="Path_1262" data-name="Path 1262" d="M-1642.353,7241.467l1,.111-.256,2.357,2.329-.256.116.984-3.6.417Z" transform="translate(1683.847 -7099.096)" fill="#cbeefc"/>
    <path id="Path_1263" data-name="Path 1263" d="M-1658.991,7258.674V7260h17.779v-1.33Z" transform="translate(1684.763 -7100.807)" fill="#cbeefc"/>
    <path id="Exclusion_3" data-name="Exclusion 3" d="M4,8A4,4,0,1,1,8,4,4.005,4.005,0,0,1,4,8ZM4,.889A3.111,3.111,0,1,0,7.11,4,3.114,3.114,0,0,0,4,.889Z" transform="translate(38.578 140.419)" fill="#cbeefc"/>
  </g>
</svg>
