<svg xmlns="http://www.w3.org/2000/svg" width="30" height="28.67" viewBox="0 0 30 28.67">
  <g id="Group_2278" data-name="Group 2278" transform="translate(-440.562 -979.89)">
    <path id="Path_1142" data-name="Path 1142" d="M498.759,985.7a2.826,2.826,0,1,0,2.826,2.825A2.828,2.828,0,0,0,498.759,985.7Z" transform="translate(-34.781 -3.648)" fill="#cbeefc"/>
    <path id="Path_1143" data-name="Path 1143" d="M464.032,979.89a6.531,6.531,0,0,0-6.241,8.455l-1.949.935a8.317,8.317,0,1,0-1.408,10.72l1.2.995a4.978,4.978,0,1,0,1.136-1.311l-1.172-.973a8.3,8.3,0,0,0,1.111-7.7l1.926-.925a6.529,6.529,0,1,0,5.4-10.2Zm-5.718,20.195a3.83,3.83,0,0,1,4.27,6.226,3.149,3.149,0,0,0-1.135-2.075c-.018.017-.037.034-.055.05s-.039.035-.058.051c-.041.033-.082.065-.125.1l-.869,1.835-.189-1.05.258-.425-.1.02a2.438,2.438,0,0,1-.253.033c-.047,0-.094.006-.142.007a2.306,2.306,0,0,1-.53-.058l.271.428-.155,1.072-1.006-1.924q-.068-.053-.132-.111l-.018.015a3.825,3.825,0,0,0-1.123,2.02,3.829,3.829,0,0,1,1.087-6.21Zm-7.051-3.814c-.054.067-1.128.768-1.128.768l.528.72-1.672,1.313,0,.007-.005,0-.006,0,0-.007-1.672-1.313.528-.72s-1.074-.7-1.128-.768c-.1-.12.48-.672.48-.672l1.795,3.469,1.794-3.469S451.358,996.15,451.262,996.271Zm1.991,2.18a6.922,6.922,0,0,0-.883-2.331,11.849,11.849,0,0,0,.312-3.693c-.023-.159-.047-.311-.072-.459a3.175,3.175,0,0,0-.042-.364,5.175,5.175,0,0,0-.4-1.281,3.039,3.039,0,0,0-1.178-1.518,3.143,3.143,0,0,0-1.95-.664,3.449,3.449,0,0,0-1.075.172,2.594,2.594,0,0,0-1.683,1.109,3.531,3.531,0,0,0-.4.771,3.435,3.435,0,0,0-.232.731c-.155.588-.267,1.245-.384,1.922a15.585,15.585,0,0,1-.782,3.212.091.091,0,0,0,.013.09.092.092,0,0,0,.086.032,1.781,1.781,0,0,0,1-.45,2.294,2.294,0,0,1-.973.932.093.093,0,0,0-.048.074.089.089,0,0,0,.039.08,3.543,3.543,0,0,0,.386.219,7.734,7.734,0,0,0-.481,1.423,6.378,6.378,0,1,1,8.743-.007ZM467.531,990a4.268,4.268,0,0,0-1.5-2.888l-.076.066-.078.065c-.054.043-.11.086-.168.126L464.52,989.8l-.236-1.4.351-.564c-.043.009-.086.018-.129.025a3.163,3.163,0,0,1-.338.04c-.062,0-.125.007-.189.007a3,3,0,0,1-.707-.084l.357.576-.223,1.428-1.313-2.582q-.091-.071-.176-.151l-.024.021a5.116,5.116,0,0,0-1.533,2.7,5.008,5.008,0,1,1,7.173.178Z" fill="#cbeefc"/>
    <path id="Path_1144" data-name="Path 1144" d="M488.956,1035.208a2.117,2.117,0,1,0,2.139,2.1A2.12,2.12,0,0,0,488.956,1035.208Z" transform="translate(-29.082 -34.747)" fill="#cbeefc"/>
    <path id="Path_1145" data-name="Path 1145" d="M463.214,1031.465l0,0,0,0,0,0Z" transform="translate(-14.228 -32.393)" fill="#cbeefc"/>
  </g>
</svg>
