<svg xmlns="http://www.w3.org/2000/svg" width="30" height="31.132" viewBox="0 0 30 31.132">
  <g id="Group_1260" data-name="Group 1260" transform="translate(-50.981 -677.124)">
    <g id="Group_1259" data-name="Group 1259" transform="translate(50.981 677.124)">
      <path id="Path_1008" data-name="Path 1008" d="M53.812,685.982a2.831,2.831,0,0,0-2.831,2.83V710.7a2.831,2.831,0,0,0,2.831,2.83H78.151a2.83,2.83,0,0,0,2.83-2.83V688.812a2.83,2.83,0,0,0-2.83-2.83h-.99v1.792a2.17,2.17,0,1,1-4.34,0v-1.792H59.141v1.792a2.17,2.17,0,1,1-4.34,0v-1.792Zm1.793,7.924H76.357a1.082,1.082,0,0,1,1.132,1.025v14.177a1.081,1.081,0,0,1-1.132,1.023H55.6a1.082,1.082,0,0,1-1.132-1.023V694.932A1.083,1.083,0,0,1,55.6,693.906Z" transform="translate(-50.981 -682.397)" fill="#cbeefc"/>
      <path id="Path_1009" data-name="Path 1009" d="M63.22,678.162V682.5a1.038,1.038,0,1,0,2.075,0v-4.339a1.038,1.038,0,1,0-2.075,0Z" transform="translate(-58.267 -677.124)" fill="#cbeefc"/>
      <path id="Path_1010" data-name="Path 1010" d="M107.74,678.162V682.5a1.038,1.038,0,1,0,2.075,0v-4.339a1.038,1.038,0,1,0-2.075,0Z" transform="translate(-84.768 -677.124)" fill="#cbeefc"/>
    </g>
    <rect id="Rectangle_741" data-name="Rectangle 741" width="5.491" height="5.619" transform="translate(56.456 690.402)" fill="#cbeefc"/>
    <rect id="Rectangle_742" data-name="Rectangle 742" width="5.49" height="5.619" transform="translate(63.369 690.402)" fill="#cbeefc"/>
    <rect id="Rectangle_743" data-name="Rectangle 743" width="5.491" height="5.619" transform="translate(56.456 697.308)" fill="#cbeefc"/>
    <rect id="Rectangle_744" data-name="Rectangle 744" width="5.49" height="5.619" transform="translate(63.369 697.308)" fill="#cbeefc"/>
    <rect id="Rectangle_745" data-name="Rectangle 745" width="5.49" height="5.619" transform="translate(70.538 690.402)" fill="#cbeefc"/>
    <rect id="Rectangle_746" data-name="Rectangle 746" width="5.49" height="5.619" transform="translate(70.538 697.308)" fill="#cbeefc"/>
  </g>
</svg>
