<svg xmlns="http://www.w3.org/2000/svg" width="30" height="24.003" viewBox="0 0 30 24.003">
  <path id="Icon_awesome-user-cog" data-name="Icon awesome-user-cog" d="M28.62,17.5a5.5,5.5,0,0,0,0-2l1.21-.7a.339.339,0,0,0,.155-.4,7.035,7.035,0,0,0-1.556-2.691.342.342,0,0,0-.422-.066l-1.21.7a5.5,5.5,0,0,0-1.73-1v-1.4A.341.341,0,0,0,24.8,9.62a7.073,7.073,0,0,0-3.1,0,.341.341,0,0,0-.267.333v1.4a5.5,5.5,0,0,0-1.73,1l-1.209-.7a.343.343,0,0,0-.422.066,7.035,7.035,0,0,0-1.556,2.691.345.345,0,0,0,.155.4l1.21.7a5.5,5.5,0,0,0,0,2l-1.21.7a.339.339,0,0,0-.155.4,7.07,7.07,0,0,0,1.556,2.691.342.342,0,0,0,.422.066l1.209-.7a5.5,5.5,0,0,0,1.73,1v1.4a.341.341,0,0,0,.267.333,7.073,7.073,0,0,0,3.1,0,.341.341,0,0,0,.267-.333v-1.4a5.5,5.5,0,0,0,1.73-1l1.21.7a.343.343,0,0,0,.422-.066A7.035,7.035,0,0,0,29.984,18.6a.345.345,0,0,0-.155-.4l-1.21-.7Zm-5.368,1.275A2.274,2.274,0,1,1,25.526,16.5,2.276,2.276,0,0,1,23.252,18.775ZM10.5,12a6,6,0,1,0-6-6A6,6,0,0,0,10.5,12ZM19.933,22.62c-.108-.056-.216-.122-.319-.183l-.37.216a1.839,1.839,0,0,1-2.274-.342,8.548,8.548,0,0,1-1.885-3.263,1.834,1.834,0,0,1,.839-2.142l.37-.216q-.007-.183,0-.366l-.37-.216a1.831,1.831,0,0,1-.839-2.142c.042-.136.1-.272.15-.408-.178-.014-.352-.056-.534-.056h-.783a8.161,8.161,0,0,1-6.835,0H6.3A6.3,6.3,0,0,0,0,19.8v1.95A2.251,2.251,0,0,0,2.25,24h16.5a2.248,2.248,0,0,0,1.275-.4,1.826,1.826,0,0,1-.094-.553Z" fill="#cbeefc"/>
</svg>
