<svg xmlns="http://www.w3.org/2000/svg" width="53.55" height="52.264" viewBox="0 0 53.55 52.264">
  <path id="Icon_awesome-calendar-alt" data-name="Icon awesome-calendar-alt" d="M0,47.364c0,2.705,2.57,4.9,5.738,4.9H47.813c3.168,0,5.738-2.195,5.738-4.9V19.6H0ZM38.25,27.357a1.346,1.346,0,0,1,1.434-1.225h4.781A1.346,1.346,0,0,1,45.9,27.357V31.44a1.346,1.346,0,0,1-1.434,1.225H39.685A1.346,1.346,0,0,1,38.25,31.44Zm0,13.066A1.346,1.346,0,0,1,39.685,39.2h4.781A1.346,1.346,0,0,1,45.9,40.423v4.083a1.346,1.346,0,0,1-1.434,1.225H39.685a1.346,1.346,0,0,1-1.434-1.225ZM22.95,27.357a1.346,1.346,0,0,1,1.434-1.225h4.781A1.346,1.346,0,0,1,30.6,27.357V31.44a1.346,1.346,0,0,1-1.434,1.225H24.385A1.346,1.346,0,0,1,22.95,31.44Zm0,13.066A1.346,1.346,0,0,1,24.385,39.2h4.781A1.346,1.346,0,0,1,30.6,40.423v4.083a1.346,1.346,0,0,1-1.434,1.225H24.385a1.346,1.346,0,0,1-1.434-1.225ZM7.65,27.357a1.346,1.346,0,0,1,1.434-1.225h4.781A1.346,1.346,0,0,1,15.3,27.357V31.44a1.346,1.346,0,0,1-1.434,1.225H9.084A1.346,1.346,0,0,1,7.65,31.44Zm0,13.066A1.346,1.346,0,0,1,9.084,39.2h4.781A1.346,1.346,0,0,1,15.3,40.423v4.083a1.346,1.346,0,0,1-1.434,1.225H9.084A1.346,1.346,0,0,1,7.65,44.506ZM47.813,6.533H42.075v-4.9A1.8,1.8,0,0,0,40.163,0H36.338a1.8,1.8,0,0,0-1.913,1.633v4.9h-15.3v-4.9A1.8,1.8,0,0,0,17.213,0H13.388a1.8,1.8,0,0,0-1.913,1.633v4.9H5.738C2.57,6.533,0,8.728,0,11.433v4.9H53.55v-4.9C53.55,8.728,50.98,6.533,47.813,6.533Z" fill="#fdfdfd"/>
</svg>
