<svg xmlns="http://www.w3.org/2000/svg" width="346.604" height="190.234" viewBox="0 0 346.604 190.234"><g transform="translate(-263.024 -232.271)"><path d="M390.955,266.732h-.512l-9.532,8.961-21.325,20.021-16.21,15.225-15.549-15.225-20.459-20.021-9.142-8.961-35.2-34.461v13.106L284.1,266.732l8.836,8.961,7.816,7.9,2.483,2.517,9.462,9.6L335.62,318.93a10.926,10.926,0,0,0,15.153.351c.041-.039.052-.067.093-.1a3.28,3.28,0,0,0,.271-.249l23.039-23.216,11.94-12.02,7.93-8,8.9-8.961Z" transform="translate(0 0)" fill="#0095d8"/><path d="M331.261,315.117a1.8,1.8,0,0,0-.028-.258c0-.1-.021-.182-.021-.275a10.059,10.059,0,0,0-1.944-4.945h0c-.141-.2-.3-.391-.449-.59a.859.859,0,0,1-.088-.068,6.97,6.97,0,0,0-.731-.832l-34.232-34.36H282.2L319.5,315.272l.019.005v.008h.012l.015.009-28.7,31.6-2.1,2.309L272.675,366.92h11.78l10.965-11.045,8.914-8.977L328,323.053a10.474,10.474,0,0,0,3.072-5.994c.018-.059.032-.1.045-.159a7.059,7.059,0,0,0,.128-1.606C331.246,315.236,331.261,315.187,331.261,315.117Z" transform="translate(2.806 12.07)" fill="#0095d8"/><path d="M332.987,317.684a1.5,1.5,0,0,0,.028.25,2.035,2.035,0,0,0,.013.285,10.164,10.164,0,0,0,1.93,4.945h0c.141.2.315.391.484.594a.2.2,0,0,0,.054.071c.226.281.479.56.731.831l34.248,34.356H382.03l-37.3-41.482v-.017h-.015l-.019-.006,28.7-31.6,2.092-2.31,16.086-17.711h-11.8l-10.95,11.042-8.917,8.979-23.647,23.838a10.488,10.488,0,0,0-3.1,6.006.491.491,0,0,0-.027.154,8.188,8.188,0,0,0-.142,1.6Z" transform="translate(20.339 9.772)" fill="#0095d8"/><path d="M291.106,365.454h.524l9.532-8.965,21.32-20.021L338.7,321.247l15.549,15.221,20.446,20.021,9.156,8.965,35.2,34.45V386.8l-21.078-21.346-8.834-8.965-7.82-7.9-2.478-2.509-9.487-9.608-22.914-23.222a10.916,10.916,0,0,0-15.14-.343c-.037.037-.066.061-.1.1-.08.083-.181.163-.261.247l-23.048,23.222-11.933,12.019-7.933,8-8.9,8.965Z" transform="translate(4.68 22.601)" fill="#fc8e03"/><path d="M335.878,321.246V310.018l-47.065,55.436Z" transform="translate(7.497 22.601)" fill="#d16818"/><path d="M325.278,303.178V314.4l47.067-55.432Z" transform="translate(18.097 7.761)" fill="#006484"/><path d="M317.39,315.285h11.665l-49-41.5Z" transform="translate(4.95 12.069)" fill="#006484"/><path d="M344.7,305.888H333.031l48.986,41.5Z" transform="translate(20.351 21.401)" fill="#006484"/><g transform="translate(413.16 285.859)"><path d="M509.979,345.035a39.453,39.453,0,0,0,13.288,8.59,45.7,45.7,0,0,0,17.122,3.094,48.388,48.388,0,0,0,19.528-3.726A58.8,58.8,0,0,0,574.638,344V309.18H539.816v15.237h17.755v11.531q-6.761,4.846-16.61,4.847a24.517,24.517,0,0,1-9.793-1.893,22.851,22.851,0,0,1-7.673-5.341,24.074,24.074,0,0,1-5.042-8.091,28.21,28.21,0,0,1-1.773-10.162v-.23a26.324,26.324,0,0,1,1.773-9.7,24.691,24.691,0,0,1,4.925-7.922,24.217,24.217,0,0,1,7.331-5.4,20.489,20.489,0,0,1,8.992-2.008,32.189,32.189,0,0,1,6.3.571,28.069,28.069,0,0,1,5.325,1.6,30.1,30.1,0,0,1,4.752,2.52,44.922,44.922,0,0,1,4.581,3.436l11.112-13.4a53.106,53.106,0,0,0-6.414-4.7,38.282,38.282,0,0,0-7.1-3.433,46.247,46.247,0,0,0-8.187-2.121,59.1,59.1,0,0,0-9.8-.743,42.585,42.585,0,0,0-16.84,3.262,40.638,40.638,0,0,0-19.756,17.474,39.053,39.053,0,0,0-6.643-8.652,42.506,42.506,0,0,0-13.459-8.822,46.429,46.429,0,0,0-34.189,0,41.018,41.018,0,0,0-22.4,22.108,40.5,40.5,0,0,0-3.207,16.091v.23a41.081,41.081,0,0,0,3.153,16.094,40.165,40.165,0,0,0,4.366,7.846H396.986V273.789H379.345v82.929h57.613V345.755a42.766,42.766,0,0,0,12.255,7.7,46.378,46.378,0,0,0,34.19,0,40.736,40.736,0,0,0,19.941-17.258A38.165,38.165,0,0,0,509.979,345.035ZM490.564,315.48a26.246,26.246,0,0,1-1.773,9.679,25.487,25.487,0,0,1-4.927,7.962,22.286,22.286,0,0,1-7.618,5.382,24.094,24.094,0,0,1-9.736,1.946,23.4,23.4,0,0,1-9.793-2A24.181,24.181,0,0,1,444,324.987a26.681,26.681,0,0,1-1.776-9.737v-.226A26.253,26.253,0,0,1,444,305.343a25.31,25.31,0,0,1,4.928-7.957A22.343,22.343,0,0,1,456.488,292a24.03,24.03,0,0,1,9.793-1.943,23.553,23.553,0,0,1,9.736,2,24.036,24.036,0,0,1,12.774,13.461,26.687,26.687,0,0,1,1.773,9.733Z" transform="translate(-379.345 -273.789)" fill="#0095d8"/><path d="M379.345,345.229h3.289V354h1.117v-8.775h3.287v-1.018h-7.693Z" transform="translate(-379.345 -253.317)" fill="#0095d8"/><path d="M393.671,348.561h-5.649v-4.35h-1.107V354h1.107v-4.413h5.649V354h1.109v-9.794h-1.109Z" transform="translate(-377.144 -253.317)" fill="#0095d8"/><path d="M396.266,349.572h5.341v-1.011h-5.341v-3.343h5.973v-1.007h-7.077V354h7.146V353h-6.041Z" transform="translate(-374.747 -253.317)" fill="#0095d8"/><path d="M405.683,354h1.1v-4.267h5.3v-1.011h-5.3v-3.5h5.935v-1.018h-7.036Z" transform="translate(-371.688 -253.317)" fill="#0095d8"/><path d="M419.729,349.9c0,2.141-1.146,3.231-2.956,3.231-1.86,0-2.992-1.187-2.992-3.3v-5.622h-1.1V349.9c0,2.774,1.65,4.253,4.067,4.253,2.45,0,4.09-1.479,4.09-4.335v-5.609h-1.106Z" transform="translate(-369.655 -253.317)" fill="#0095d8"/><path d="M420.487,345.229h3.29V354h1.117v-8.775h3.286v-1.018h-7.693Z" transform="translate(-367.384 -253.317)" fill="#0095d8"/><path d="M434.989,349.9c0,2.141-1.147,3.231-2.953,3.231-1.859,0-2.992-1.187-2.992-3.3v-5.622h-1.107V349.9c0,2.774,1.649,4.253,4.075,4.253,2.447,0,4.083-1.479,4.083-4.335v-5.609h-1.1Z" transform="translate(-365.219 -253.317)" fill="#0095d8"/><path d="M444.041,347.149v-.026a2.694,2.694,0,0,0-.759-1.93,3.858,3.858,0,0,0-2.783-.982H436.29V354H437.4V350.2h2.8L443.033,354h1.358l-3.009-4A2.868,2.868,0,0,0,444.041,347.149ZM437.4,349.2v-3.975h3.023c1.58,0,2.5.733,2.5,1.932v.031c0,1.255-1.049,2.012-2.517,2.012Z" transform="translate(-362.79 -253.317)" fill="#0095d8"/><path d="M445.237,349.572h5.342v-1.011h-5.342v-3.343h5.976v-1.007h-7.08V354h7.147V353h-6.043Z" transform="translate(-360.51 -253.317)" fill="#0095d8"/><path d="M459.323,344.081a4.963,4.963,0,0,0-5.007,5.066v.026a4.993,4.993,0,1,0,9.986-.026v-.031A4.914,4.914,0,0,0,459.323,344.081Zm3.839,5.092a3.847,3.847,0,0,1-3.839,4.013,3.892,3.892,0,0,1-3.86-4.039v-.031a3.847,3.847,0,0,1,3.841-4.01,3.891,3.891,0,0,1,3.858,4.041Z" transform="translate(-357.55 -253.355)" fill="#0095d8"/><path d="M463.875,354h1.107v-4.267h5.3v-1.011h-5.3v-3.5h5.929v-1.018h-7.036Z" transform="translate(-354.771 -253.317)" fill="#0095d8"/><path d="M475.351,344.211h-1.108V354h6.614v-1.022h-5.506Z" transform="translate(-351.757 -253.317)" fill="#0095d8"/><path d="M485.2,344.081a4.965,4.965,0,0,0-5.012,5.066v.026a5,5,0,1,0,9.99-.026v-.031A4.916,4.916,0,0,0,485.2,344.081Zm3.828,5.092a3.842,3.842,0,0,1-3.828,4.013,3.89,3.89,0,0,1-3.862-4.039v-.031a3.842,3.842,0,0,1,3.832-4.01,3.889,3.889,0,0,1,3.858,4.041Z" transform="translate(-350.03 -253.355)" fill="#0095d8"/><path d="M494.277,349.8h2.974v2.434a4.6,4.6,0,0,1-2.824.98,3.782,3.782,0,0,1-3.873-4.067v-.031a3.825,3.825,0,0,1,3.724-4.01,4.146,4.146,0,0,1,2.974,1.115l.72-.84a5.172,5.172,0,0,0-3.656-1.3,4.914,4.914,0,0,0-4.906,5.066v.026a4.8,4.8,0,0,0,4.979,5.038,5.943,5.943,0,0,0,3.93-1.5v-3.906h-4.041Z" transform="translate(-347.349 -253.355)" fill="#0095d8"/><rect width="1.103" height="9.794" transform="translate(153.567 90.894)" fill="#0095d8"/><path d="M505.057,348.607c-2.152-.466-2.654-.981-2.654-1.905v-.027c0-.879.8-1.576,2.081-1.576a4.3,4.3,0,0,1,2.829,1.06l.639-.851a5.091,5.091,0,0,0-3.44-1.2c-1.855,0-3.215,1.125-3.215,2.667v.03c0,1.608,1.034,2.337,3.29,2.82,2.054.436,2.545.955,2.545,1.866v.026c0,.968-.873,1.664-2.184,1.664a4.672,4.672,0,0,1-3.364-1.384l-.679.813a5.737,5.737,0,0,0,4,1.563c1.937,0,3.339-1.088,3.339-2.77v-.023C508.246,349.877,507.24,349.082,505.057,348.607Z" transform="translate(-344.006 -253.347)" fill="#0095d8"/><path d="M507.642,345.229h3.285V354h1.122v-8.775h3.288v-1.018h-7.7Z" transform="translate(-342.048 -253.317)" fill="#0095d8"/><rect width="1.103" height="9.794" transform="translate(175.465 90.894)" fill="#0095d8"/><path d="M522.968,353.186a3.863,3.863,0,0,1-3.788-4.039v-.031a3.835,3.835,0,0,1,3.788-4.01,4.266,4.266,0,0,1,3.081,1.338l.753-.812a5.1,5.1,0,0,0-3.82-1.551,4.933,4.933,0,0,0-4.949,5.066v.026a4.887,4.887,0,0,0,4.909,5.038,5.117,5.117,0,0,0,3.921-1.72l-.732-.716A4.24,4.24,0,0,1,522.968,353.186Z" transform="translate(-339.028 -253.355)" fill="#0095d8"/><path d="M530.03,348.607c-2.158-.466-2.661-.981-2.661-1.905v-.027c0-.879.815-1.576,2.084-1.576a4.3,4.3,0,0,1,2.831,1.06l.641-.851a5.1,5.1,0,0,0-3.437-1.2c-1.866,0-3.222,1.125-3.222,2.667v.03c0,1.608,1.036,2.337,3.289,2.82,2.051.436,2.545.955,2.545,1.866v.026c0,.968-.871,1.664-2.185,1.664a4.654,4.654,0,0,1-3.354-1.384l-.685.813a5.74,5.74,0,0,0,4,1.563c1.943,0,3.338-1.088,3.338-2.77v-.023C533.215,349.877,532.212,349.082,530.03,348.607Z" transform="translate(-336.748 -253.347)" fill="#0095d8"/></g></g></svg>